<svg xmlns="http://www.w3.org/2000/svg" width="1024" height="1024" viewBox="0 0 1024 1024">
<g>
<path d="M 489.50 995.40 C482.55,994.71 469.57,992.91 467.87,992.42 C466.79,992.10 463.98,985.51 459.47,972.66 L 452.69 953.37 L 438.59 951.17 C425.94,949.21 416.81,947.33 397.31,942.68 L 391.13 941.21 L 378.53 956.60 C371.60,965.07 365.35,972.00 364.64,972.00 C361.63,972.00 341.66,965.80 331.50,961.71 C318.61,956.52 309.43,951.99 297.45,944.91 L 288.77 939.79 L 289.33 935.14 C289.64,932.59 290.44,923.79 291.12,915.60 C292.55,898.23 294.15,901.14 277.65,891.09 C271.86,887.56 261.36,880.47 254.31,875.34 C247.27,870.20 240.85,865.69 240.05,865.31 C239.17,864.90 231.56,868.29 220.70,873.93 C205.59,881.79 202.46,883.08 200.59,882.22 C197.12,880.64 179.25,866.03 171.45,858.40 C162.89,850.02 151.54,837.11 147.20,830.79 L 144.00 826.14 L 152.06 808.32 C156.50,798.52 160.34,790.02 160.60,789.43 C160.86,788.84 158.40,785.00 155.13,780.91 C149.42,773.76 132.33,748.58 128.80,742.12 C126.77,738.41 126.01,738.36 102.00,740.40 C93.47,741.13 85.95,741.52 85.27,741.26 C83.81,740.72 73.05,719.72 66.69,705.00 C64.19,699.22 60.22,688.05 57.86,680.16 L 53.57 665.82 L 59.54 660.14 C62.82,657.02 69.46,650.81 74.30,646.33 L 83.09 638.19 L 80.09 626.35 C76.80,613.38 73.68,597.48 71.68,583.50 C70.19,573.06 72.50,574.90 50.50,566.60 C42.25,563.48 34.90,560.56 34.16,560.10 C30.75,557.99 27.44,528.66 28.33,508.50 C28.91,495.34 31.22,478.19 33.06,473.35 C33.67,471.74 37.12,469.93 46.69,466.23 C53.74,463.50 61.89,460.48 64.82,459.53 C67.75,458.57 70.29,457.28 70.48,456.65 C70.66,456.02 71.82,448.98 73.05,441.00 C74.27,433.02 77.14,418.95 79.41,409.72 L 83.55 392.95 L 71.02 381.34 C64.14,374.96 57.67,368.45 56.65,366.87 C54.84,364.06 54.85,363.86 57.35,355.16 C62.53,337.10 76.82,305.25 86.02,291.25 L 89.47 286.00 L 95.48 286.07 C98.79,286.12 107.71,286.69 115.30,287.36 L 129.10 288.56 L 137.41 276.03 C141.97,269.14 150.02,257.67 155.28,250.55 C164.74,237.76 164.84,237.56 163.51,234.55 C159.07,224.55 150.09,203.16 149.54,201.29 C149.01,199.49 150.54,197.27 157.80,189.29 C175.62,169.71 202.33,145.75 207.94,144.31 C209.47,143.92 211.53,144.35 213.44,145.46 C215.12,146.44 222.48,150.60 229.80,154.70 L 243.09 162.16 L 259.30 151.25 C268.21,145.25 279.55,137.94 284.50,135.01 C289.45,132.07 293.62,129.59 293.77,129.49 C293.91,129.38 293.39,121.35 292.61,111.63 C291.82,101.91 291.50,92.73 291.88,91.23 C293.07,86.55 322.84,72.37 351.40,62.89 L 366.30 57.94 L 368.61 60.10 C369.88,61.30 375.77,68.06 381.69,75.14 C387.62,82.21 392.93,88.00 393.50,88.00 C394.06,88.00 400.37,86.69 407.52,85.08 C420.10,82.25 438.73,78.79 448.05,77.55 L 452.60 76.94 L 459.62 58.23 L 466.65 39.53 L 470.58 38.86 C478.19,37.56 500.22,36.00 510.80,36.01 C524.71,36.02 549.05,38.61 550.63,40.24 C551.86,41.50 557.28,54.78 562.45,69.17 L 565.21 76.84 L 570.35 77.52 C578.96,78.66 600.89,82.89 611.83,85.52 C617.51,86.88 622.91,87.98 623.83,87.95 C624.75,87.92 631.08,81.16 637.89,72.93 C648.29,60.36 650.62,58.05 652.39,58.55 C660.86,60.95 680.95,67.80 687.88,70.65 C698.65,75.08 721.94,86.69 724.38,88.84 C726.10,90.36 726.21,91.59 725.65,103.50 C725.32,110.65 724.76,119.43 724.42,123.00 L 723.81 129.50 L 729.15 132.44 C732.09,134.05 742.52,140.80 752.32,147.44 C762.11,154.07 771.16,160.14 772.43,160.93 C774.58,162.26 775.72,161.78 790.74,153.18 C799.56,148.13 807.71,144.00 808.85,144.00 C811.48,144.00 827.66,156.97 841.46,170.15 C853.65,181.79 868.00,198.10 868.00,200.31 C868.00,201.44 857.40,227.79 853.42,236.53 C853.16,237.10 858.83,245.83 866.01,255.93 C873.19,266.04 880.96,277.38 883.28,281.13 C885.60,284.89 887.95,288.11 888.50,288.29 C889.05,288.47 897.71,287.98 907.75,287.20 C917.79,286.42 926.65,286.04 927.44,286.34 C929.62,287.17 939.63,304.78 947.17,321.02 C954.46,336.75 960.62,353.96 961.66,361.52 L 962.31 366.27 L 948.21 379.88 L 934.11 393.50 L 937.55 407.00 C939.44,414.42 942.50,428.83 944.33,439.00 L 947.67 457.50 L 954.09 459.74 C964.51,463.38 981.67,470.29 983.37,471.53 C986.64,473.92 988.47,489.68 988.47,515.50 C988.47,540.09 986.65,556.94 983.71,559.59 C982.61,560.58 970.83,565.36 954.00,571.63 L 947.50 574.06 L 944.76 590.78 C943.26,599.98 940.45,613.94 938.51,621.81 C936.58,629.68 935.00,636.65 935.00,637.31 C935.00,637.97 941.33,644.35 949.06,651.50 L 963.11 664.50 L 962.61 668.53 C960.56,684.73 938.27,737.64 932.09,740.95 C930.87,741.60 925.30,741.45 915.38,740.48 C907.20,739.69 898.36,739.03 895.74,739.02 C891.07,739.00 890.93,739.09 887.79,744.25 C881.74,754.18 867.75,774.51 862.25,781.36 L 856.74 788.22 L 858.51 791.86 C863.60,802.30 873.00,824.48 873.00,826.04 C873.00,828.27 867.98,834.99 858.47,845.50 C844.67,860.75 831.59,872.69 819.67,880.88 L 815.43 883.80 L 797.97 874.44 C788.36,869.29 779.94,865.06 779.25,865.04 C778.57,865.02 773.80,868.12 768.66,871.93 C759.55,878.69 740.05,891.65 730.47,897.31 L 725.71 900.12 L 726.36 909.31 C726.71,914.37 727.27,923.45 727.59,929.50 L 728.19 940.50 L 721.62 944.35 C710.84,950.65 694.17,958.76 683.36,962.95 C671.52,967.54 654.41,972.37 652.55,971.66 C651.84,971.39 645.75,964.44 639.02,956.22 L 626.78 941.28 L 616.64 943.70 C601.13,947.40 584.46,950.67 574.51,951.97 C569.57,952.61 565.50,953.22 565.46,953.32 C565.41,953.42 562.36,962.03 558.66,972.45 C554.96,982.87 551.77,991.56 551.57,991.76 C549.32,994.02 502.83,996.74 489.50,995.40 ZM 538.50 978.29 C539.94,977.47 542.22,971.89 546.66,958.32 L 552.82 939.50 L 562.44 938.29 C578.66,936.26 594.70,933.13 612.84,928.46 C622.38,926.01 630.79,924.00 631.52,924.00 C632.26,924.00 638.37,930.64 645.09,938.75 C651.81,946.86 657.82,953.63 658.44,953.78 C660.83,954.38 684.10,945.59 697.85,938.90 L 712.21 931.91 L 711.62 923.21 C711.29,918.42 710.75,909.30 710.41,902.95 L 709.78 891.40 L 719.64 885.57 C733.86,877.18 755.94,862.43 767.43,853.65 L 777.36 846.07 L 795.60 855.57 L 813.85 865.06 L 819.67 860.41 C831.73,850.77 855.00,826.25 855.00,823.18 C855.00,822.64 851.81,815.29 847.91,806.85 C837.46,784.23 837.62,787.76 846.56,776.34 C855.62,764.75 874.21,737.16 878.95,728.25 C880.92,724.54 882.93,722.00 883.89,722.00 C886.58,722.01 912.12,723.92 918.27,724.58 L 924.04 725.20 L 928.96 714.68 C939.53,692.11 945.69,674.82 944.63,670.73 C944.31,669.50 937.79,662.76 930.14,655.74 L 916.24 642.98 L 918.62 634.78 C924.55,614.41 929.65,589.26 932.52,566.33 L 933.17 561.15 L 950.29 555.37 C959.70,552.20 968.18,548.82 969.12,547.88 C970.06,546.94 971.21,543.54 971.67,540.33 C972.77,532.64 972.54,493.74 971.37,488.00 C970.27,482.62 970.06,482.50 948.54,475.07 C940.31,472.24 933.44,469.77 933.27,469.60 C933.09,469.43 931.82,461.46 930.43,451.89 C928.99,441.94 925.52,425.09 922.32,412.50 C919.25,400.40 916.69,389.83 916.62,389.00 C916.55,388.17 922.35,382.06 929.50,375.40 C936.65,368.75 943.06,362.63 943.74,361.81 C944.74,360.61 944.67,359.24 943.38,354.91 C939.54,341.94 926.24,312.22 921.17,305.26 C919.42,302.86 918.79,302.69 912.39,302.92 C908.60,303.06 899.79,303.70 892.82,304.35 L 880.14 305.52 L 866.23 284.51 C858.58,272.95 848.19,258.22 843.14,251.77 L 833.96 240.04 L 837.34 233.27 C845.16,217.59 850.23,205.03 849.65,202.73 C848.54,198.32 810.62,162.00 807.13,162.00 C806.69,162.00 798.78,166.32 789.55,171.60 L 772.77 181.21 L 769.64 178.88 C747.53,162.48 734.97,154.25 709.07,139.20 C707.85,138.50 707.82,136.42 708.86,124.94 C709.53,117.55 710.33,108.56 710.64,104.96 L 711.22 98.42 L 700.36 93.28 C687.26,87.08 671.99,80.97 662.55,78.15 C658.72,77.01 655.55,76.17 655.49,76.29 C655.43,76.40 652.01,80.55 647.89,85.50 C643.77,90.45 638.32,97.23 635.78,100.57 L 631.16 106.65 L 612.10 101.87 C595.42,97.69 573.47,93.51 557.50,91.47 L 552.50 90.83 L 546.53 72.83 C542.22,59.83 540.00,54.51 538.53,53.68 C536.21,52.35 486.88,51.99 480.95,53.26 L 477.41 54.01 L 471.07 72.52 C465.77,88.00 464.39,91.09 462.62,91.42 C461.45,91.64 453.30,92.82 444.50,94.03 C435.70,95.25 420.17,98.26 410.00,100.73 C399.83,103.20 390.34,105.44 388.93,105.70 C386.64,106.12 385.17,104.68 375.25,92.26 C369.13,84.61 363.50,77.83 362.73,77.19 C361.63,76.28 359.13,76.77 351.41,79.39 C330.58,86.48 306.99,97.38 307.02,99.91 C307.03,100.79 307.70,108.25 308.51,116.50 C310.85,140.44 311.98,137.37 297.93,145.35 C283.35,153.65 269.02,163.02 255.14,173.34 L 244.79 181.05 L 240.14 178.43 C237.59,176.98 229.77,172.64 222.76,168.78 L 210.01 161.76 L 202.76 167.55 C194.75,173.93 167.00,201.36 167.00,202.89 C167.00,203.42 170.63,212.03 175.06,222.02 L 183.13 240.19 L 174.25 251.85 C161.92,268.01 152.39,281.70 145.05,293.75 C141.61,299.39 138.39,304.26 137.89,304.57 C137.39,304.88 131.92,304.67 125.74,304.11 C119.56,303.55 110.90,302.80 106.50,302.46 L 98.50 301.84 L 93.39 310.67 C86.82,322.01 80.85,335.40 76.20,349.23 L 72.50 360.21 L 87.00 374.36 L 101.51 388.50 L 95.36 413.00 C91.89,426.84 88.20,444.56 86.88,453.73 L 84.55 469.95 L 66.08 476.23 C44.47,483.56 46.63,480.86 44.82,502.81 C43.66,516.90 44.61,537.24 46.82,545.44 C47.65,548.53 50.56,549.84 76.35,558.66 C80.66,560.14 84.36,561.83 84.57,562.42 C84.78,563.02 85.86,569.87 86.98,577.66 C89.62,595.98 93.13,613.23 97.59,629.71 L 101.16 642.92 L 94.33 649.19 C90.57,652.64 83.99,658.85 79.71,662.98 L 71.92 670.50 L 74.41 679.08 C77.10,688.37 83.85,704.77 90.10,717.21 L 94.03 725.01 L 99.26 724.49 C109.84,723.44 134.31,722.08 135.01,722.50 C135.40,722.75 138.34,727.35 141.53,732.72 C149.50,746.13 157.03,757.25 168.11,771.98 C173.27,778.85 177.83,784.98 178.23,785.60 C178.63,786.23 175.37,794.70 170.98,804.43 C166.59,814.15 163.00,822.58 163.00,823.16 C163.00,826.21 184.83,849.51 197.18,859.63 L 203.86 865.11 L 222.18 855.62 L 240.50 846.13 L 251.00 854.18 C263.53,863.80 282.42,876.37 297.36,885.04 L 308.22 891.35 L 307.63 897.92 C307.30,901.54 306.74,910.66 306.37,918.19 L 305.72 931.87 L 321.11 939.37 C336.16,946.69 356.72,954.45 359.42,953.82 C360.17,953.64 364.99,948.29 370.14,941.92 C383.50,925.38 384.73,924.00 386.08,924.00 C386.74,924.00 395.39,926.04 405.31,928.52 C423.17,933.00 445.37,937.21 458.12,938.52 L 464.74 939.21 L 470.93 958.03 C474.34,968.39 477.67,977.31 478.33,977.86 C480.23,979.44 486.77,979.77 512.50,979.60 C528.38,979.49 537.18,979.05 538.50,978.29 ZM 485.00 974.12 L 481.50 973.50 L 475.50 955.50 C472.20,945.60 469.25,936.88 468.95,936.12 C468.59,935.19 464.18,934.13 455.46,932.89 C436.43,930.18 417.49,926.42 400.33,921.95 C391.98,919.78 384.69,918.00 384.12,918.00 C383.56,918.00 377.44,924.95 370.54,933.44 L 357.98 948.87 L 351.24 946.55 C339.76,942.60 328.87,938.02 319.63,933.25 L 310.76 928.67 L 311.61 915.59 C312.08,908.39 312.47,899.20 312.48,895.16 L 312.50 887.83 L 302.00 881.79 C288.27,873.89 269.51,861.45 254.22,850.11 C247.47,845.10 241.50,841.00 240.96,841.00 C240.42,841.00 231.90,845.04 222.03,849.99 L 204.07 858.97 L 198.29 854.13 C191.50,848.44 173.35,829.83 170.37,825.50 L 168.30 822.50 L 176.66 804.16 L 185.03 785.82 L 174.67 772.16 C163.03,756.83 153.12,742.22 144.52,727.72 C141.33,722.35 138.45,717.78 138.11,717.57 C137.77,717.37 129.18,717.81 119.00,718.56 C108.82,719.31 99.68,719.94 98.68,719.96 C96.59,720.01 88.72,704.23 82.51,687.53 C76.41,671.12 75.59,673.57 92.44,658.00 C104.12,647.20 106.94,644.10 106.48,642.50 C99.40,617.61 92.47,584.28 90.41,565.21 C89.89,560.33 89.28,558.68 87.69,557.83 C86.57,557.23 78.23,554.12 69.16,550.91 C60.10,547.70 52.34,544.72 51.94,544.29 C51.18,543.49 49.00,525.40 49.00,519.96 L 49.00 517.00 L 72.50 517.00 L 96.00 517.00 L 96.00 510.23 C96.00,499.44 97.91,472.52 99.56,460.00 C120.06,304.74 232.32,171.08 383.41,122.06 C397.63,117.44 418.53,112.23 435.50,109.08 C455.71,105.31 471.26,103.92 499.50,103.34 C542.87,102.44 568.89,105.23 608.88,115.08 C655.92,126.66 694.10,143.71 737.00,172.30 C765.21,191.10 786.81,209.74 814.20,238.89 L 823.89 249.21 L 826.98 247.01 C829.47,245.24 830.36,245.05 831.54,246.03 C834.65,248.61 853.28,274.27 863.83,290.50 C869.91,299.85 875.47,308.23 876.19,309.12 C877.38,310.60 878.91,310.63 893.00,309.43 C901.53,308.70 910.56,308.08 913.09,308.05 L 917.67 308.00 L 925.24 323.75 C929.40,332.41 934.31,343.90 936.15,349.28 L 939.50 359.06 L 932.50 365.81 C928.65,369.51 922.04,375.69 917.81,379.52 L 910.12 386.50 L 914.49 402.71 C919.87,422.67 922.26,434.05 925.43,454.95 C926.79,463.87 928.36,471.72 928.92,472.40 C929.48,473.08 938.04,476.48 947.93,479.95 L 965.92 486.26 L 966.71 490.88 C967.74,496.90 967.73,534.13 966.70,540.17 L 965.90 544.84 L 947.20 551.17 L 928.50 557.50 L 927.70 564.00 C925.51,581.74 921.32,603.59 916.38,623.00 L 910.92 644.50 L 915.71 648.94 C918.34,651.39 924.94,657.65 930.37,662.87 L 940.25 672.35 L 936.74 682.92 C933.58,692.46 922.85,717.24 920.97,719.35 C920.55,719.81 911.33,719.48 900.48,718.61 C889.63,717.74 880.36,717.28 879.88,717.57 C879.40,717.87 876.76,721.92 874.02,726.57 C865.39,741.18 856.75,753.99 845.06,769.50 C838.85,777.75 833.58,784.98 833.35,785.56 C833.12,786.14 836.71,794.69 841.33,804.56 C848.18,819.21 849.54,822.87 848.70,824.50 C847.40,827.04 819.35,855.17 815.98,857.32 C813.52,858.89 812.98,858.69 795.14,849.63 L 776.83 840.32 L 764.16 849.77 C748.11,861.76 732.78,871.97 717.50,880.84 L 705.50 887.81 L 705.50 896.16 C705.50,900.75 705.83,910.01 706.24,916.74 L 706.98 928.99 L 697.95 933.53 C688.20,938.42 683.55,940.38 669.28,945.58 L 660.06 948.94 L 648.07 934.63 C641.47,926.75 635.43,919.77 634.63,919.11 C633.49,918.16 630.01,918.74 617.84,921.91 C600.15,926.51 581.64,930.19 564.50,932.52 C557.90,933.41 551.63,934.48 550.57,934.89 C549.12,935.45 547.15,940.28 542.54,954.57 L 536.44 973.50 L 531.97 974.18 C526.45,975.01 489.80,974.97 485.00,974.12 ZM 554.85 920.51 C606.73,914.84 661.27,897.23 706.50,871.54 C743.91,850.29 768.66,831.47 798.55,801.56 C830.25,769.85 852.20,740.19 871.21,703.37 C909.55,629.11 924.34,543.64 912.93,462.21 C906.02,412.87 891.98,368.87 870.27,328.50 C840.61,273.36 802.67,228.38 755.00,191.85 C729.16,172.05 696.50,152.91 666.00,139.70 C655.24,135.04 619.28,122.70 613.00,121.52 L 609.50 120.86 L 613.00 123.03 C614.92,124.22 618.08,126.71 620.00,128.56 C622.72,131.17 626.76,133.03 638.08,136.89 C646.09,139.62 660.47,145.26 670.03,149.43 C683.03,155.09 688.56,157.01 691.96,157.04 C694.46,157.07 698.17,157.68 700.20,158.41 C706.38,160.61 722.90,172.33 733.50,182.02 C739.00,187.05 750.70,197.07 759.50,204.29 C832.96,264.55 882.44,345.49 900.85,435.50 C910.92,484.69 911.51,539.61 902.49,588.50 C882.74,695.59 821.39,787.43 728.00,849.71 C675.54,884.69 611.30,907.57 547.00,914.18 C528.61,916.07 484.91,915.76 467.00,913.62 C437.43,910.07 410.83,904.22 384.28,895.44 C364.24,888.81 354.93,884.98 334.50,874.99 C293.93,855.16 260.34,831.33 226.43,798.35 C159.96,733.71 117.63,643.31 109.95,549.63 C108.59,533.06 109.21,486.28 110.97,472.00 C120.78,392.61 148.86,325.65 198.38,263.56 C210.44,248.45 245.21,214.23 260.50,202.44 C301.60,170.73 338.21,150.79 383.00,135.69 C404.48,128.45 434.13,121.73 458.50,118.57 C492.53,114.16 540.14,114.93 571.39,120.38 C576.76,121.32 580.36,121.46 582.64,120.83 C584.49,120.32 589.49,119.58 593.75,119.19 L 601.50 118.48 L 587.50 115.76 C554.39,109.32 520.49,106.99 487.27,108.87 C475.30,109.54 460.55,110.78 454.50,111.61 C405.82,118.29 359.03,133.52 317.50,156.19 C224.72,206.83 153.87,290.79 121.55,388.41 C84.39,500.65 98.56,627.19 159.40,726.46 C175.83,753.26 191.93,773.76 215.50,797.87 C258.30,841.66 305.78,873.34 361.50,895.30 C400.75,910.77 437.57,918.82 485.50,922.41 C496.32,923.22 541.28,921.99 554.85,920.51 ZM 550.45 891.51 C601.68,886.03 649.78,869.85 699.00,841.53 C727.69,825.03 750.98,807.09 775.57,782.54 C806.71,751.47 827.54,723.07 846.40,686.00 C872.13,635.43 885.28,583.03 886.72,525.36 C888.93,436.47 860.38,351.17 805.09,281.50 C794.53,268.19 779.15,251.36 769.04,242.04 L 758.88 232.67 L 756.69 234.89 L 754.50 237.12 L 763.25 245.31 C772.04,253.54 774.98,258.14 775.02,263.72 C775.04,267.77 775.98,268.67 781.00,269.47 C786.63,270.37 790.38,272.52 799.55,280.11 C809.54,288.37 811.71,291.80 813.05,301.39 C814.37,310.93 813.73,315.51 809.84,324.08 L 806.86 330.67 L 814.09 343.58 C837.46,385.32 851.83,428.48 857.66,474.50 C860.11,493.85 860.12,536.84 857.68,556.50 C852.77,595.96 842.34,631.19 825.11,666.50 C800.56,716.83 766.89,757.66 721.47,792.20 C689.38,816.59 644.82,838.71 605.22,849.90 C571.34,859.48 544.40,863.27 509.50,863.36 C481.57,863.44 465.81,861.96 440.68,856.90 C389.39,846.57 335.88,822.45 297.00,792.13 L 288.50 785.50 L 362.75 785.24 C403.59,785.10 437.00,784.78 437.00,784.52 C437.00,784.26 433.93,779.20 430.17,773.28 C414.59,748.71 402.47,728.26 400.09,722.57 C397.71,716.85 397.55,715.27 397.19,694.96 C396.95,681.37 397.21,671.93 397.90,669.38 C398.63,666.68 402.04,661.73 408.21,654.42 C413.28,648.41 430.92,627.30 447.41,607.50 C463.90,587.70 483.72,563.91 491.45,554.62 L 505.50 537.75 L 505.78 553.12 C505.94,561.58 505.94,602.25 505.78,643.50 L 505.50 718.50 L 501.86 726.12 C499.86,730.32 491.19,744.99 482.61,758.73 C474.02,772.47 467.00,784.00 467.00,784.36 C467.00,784.71 514.70,785.00 573.00,785.00 C631.30,785.00 679.00,784.81 679.00,784.59 C679.00,784.15 662.96,758.97 652.22,742.55 C648.64,737.07 644.09,729.20 642.10,725.05 L 638.50 717.50 L 638.50 682.50 L 638.50 647.50 L 687.64 647.24 C725.32,647.04 736.99,646.69 737.72,645.74 C738.55,644.65 760.45,599.58 783.14,552.24 L 790.94 535.98 L 797.22 539.80 C800.67,541.90 806.09,545.09 809.25,546.88 L 815.00 550.15 L 815.00 466.57 L 815.00 383.00 L 788.69 383.00 L 762.37 383.00 L 759.50 386.00 L 756.63 389.00 L 782.81 389.00 L 809.00 389.00 L 809.00 464.60 L 809.00 540.19 L 804.25 537.44 C801.64,535.92 797.70,533.47 795.50,531.99 C787.95,526.89 751.50,504.27 747.00,501.89 L 742.50 499.50 L 687.75 499.22 L 633.00 498.93 L 633.00 516.47 L 633.00 534.00 L 709.00 534.00 C750.80,534.00 785.00,534.38 785.00,534.85 C785.00,535.31 776.31,553.65 765.68,575.60 C755.06,597.54 743.51,621.46 740.02,628.75 L 733.67 642.00 L 683.29 642.00 L 632.91 642.00 L 633.21 681.25 L 633.50 720.50 L 636.63 727.10 C638.35,730.73 645.93,743.31 653.49,755.05 C661.04,766.79 667.44,776.99 667.72,777.70 C668.12,778.76 650.57,779.00 572.55,779.00 C496.29,779.00 477.03,778.75 477.62,777.75 C478.03,777.06 483.98,767.50 490.85,756.50 C505.32,733.30 509.67,724.67 511.02,716.44 C512.07,710.01 512.43,522.00 511.39,522.00 C511.06,522.00 509.83,523.24 508.65,524.75 C506.35,527.71 499.76,535.65 435.18,613.25 C411.95,641.17 392.51,665.16 391.97,666.57 C390.72,669.86 390.72,701.96 391.97,712.84 C393.21,723.63 395.07,727.54 412.05,755.12 C419.72,767.58 426.00,778.05 426.00,778.39 C426.00,778.72 384.63,779.00 334.06,779.00 C264.91,779.00 241.94,779.29 241.39,780.17 C240.51,781.61 251.02,791.83 267.58,805.61 C324.13,852.68 397.49,884.18 467.50,891.45 C475.75,892.31 484.98,893.18 488.00,893.39 C498.57,894.14 536.62,892.99 550.45,891.51 ZM 237.22 773.25 C240.74,769.22 263.60,732.02 265.95,726.50 L 268.50 720.50 L 268.78 590.00 C269.09,445.52 269.36,452.21 262.64,438.86 C259.86,433.32 245.78,412.92 231.63,393.91 L 228.22 389.32 L 279.86 388.66 C351.03,387.75 433.00,387.83 433.00,388.81 C433.00,389.26 428.22,395.90 422.39,403.56 C392.13,443.30 390.98,446.22 391.03,483.32 L 391.07 505.50 L 395.28 500.53 C401.14,493.62 497.55,381.11 519.56,355.50 C529.49,343.95 546.49,323.99 557.36,311.15 C575.58,289.62 576.97,287.70 575.31,286.43 C574.31,285.68 573.25,285.05 572.95,285.03 C572.65,285.01 565.27,293.33 556.54,303.50 C547.81,313.68 540.51,321.84 540.31,321.64 C539.95,321.29 545.68,296.05 550.02,278.82 C551.98,271.05 552.05,269.92 550.73,268.02 C549.32,266.02 548.50,267.23 534.38,292.15 C526.20,306.58 519.39,317.74 519.25,316.94 C519.12,316.15 517.65,302.00 516.01,285.50 C512.76,252.98 504.73,181.93 504.35,182.32 C504.22,182.45 502.98,191.54 501.60,202.53 C500.21,213.51 497.07,238.25 494.62,257.50 C492.17,276.75 489.59,298.46 488.89,305.75 C488.19,313.04 487.36,318.99 487.06,318.98 C486.75,318.97 477.95,302.10 467.50,281.51 C457.05,260.91 448.40,244.60 448.27,245.28 C448.15,245.95 451.30,265.96 455.27,289.75 C459.25,313.54 462.25,333.00 461.95,333.00 C461.65,333.00 450.46,321.73 437.08,307.96 C423.70,294.18 412.56,283.10 412.33,283.34 C412.10,283.57 418.65,296.74 426.89,312.61 C435.12,328.48 441.69,341.64 441.48,341.86 C441.05,342.28 440.57,342.01 410.50,324.48 C349.22,288.75 305.53,263.85 301.50,262.36 C299.01,261.44 315.29,275.20 366.27,317.13 C409.35,352.55 413.39,355.96 412.86,356.44 C412.66,356.61 408.00,355.70 402.50,354.41 C379.25,348.96 338.87,340.00 337.73,340.05 C337.05,340.08 350.67,347.24 368.00,355.96 C385.33,364.68 398.83,372.03 398.00,372.30 C394.81,373.31 254.50,383.30 236.75,383.77 C226.44,384.04 218.01,384.54 218.02,384.88 C218.03,385.22 220.58,388.88 223.69,393.00 C240.35,415.11 254.46,435.20 257.10,440.55 C263.28,453.11 262.98,445.46 262.99,586.66 C263.00,733.53 263.78,720.40 254.17,736.12 C246.45,748.76 247.42,748.01 243.93,744.00 C221.49,718.24 199.90,684.55 187.17,655.44 C171.61,619.87 161.96,581.41 158.94,543.00 C157.46,524.23 158.26,486.58 160.49,470.00 C173.84,370.64 231.30,278.67 314.50,223.52 C360.11,193.29 407.95,175.26 463.50,167.37 C472.33,166.11 483.78,165.60 506.86,165.42 L 538.23 165.18 L 541.31 161.34 C543.01,159.23 547.52,154.00 551.34,149.72 C555.15,145.44 557.98,141.65 557.63,141.30 C556.50,140.16 545.90,139.08 525.39,137.99 C460.96,134.59 396.55,148.27 339.00,177.56 C267.06,214.18 206.80,274.83 170.40,347.25 C143.79,400.19 130.53,456.47 130.64,516.00 C130.79,600.12 157.71,679.48 208.00,744.11 C216.34,754.83 233.99,775.00 235.02,775.00 C235.39,775.00 236.38,774.21 237.22,773.25 ZM 381.99 759.25 C381.98,758.84 377.82,756.81 372.74,754.75 L 363.50 750.99 L 331.83 751.00 L 300.15 751.00 L 292.83 753.93 C288.80,755.53 284.26,757.16 282.75,757.53 C274.74,759.52 284.05,760.00 331.00,760.00 C359.05,760.00 381.99,759.66 381.99,759.25 ZM 623.45 759.13 C622.93,758.65 617.62,756.62 611.66,754.63 L 600.81 751.00 L 571.58 751.00 L 542.35 751.00 L 532.17 754.84 C526.56,756.96 521.69,758.98 521.32,759.34 C520.96,759.70 544.01,760.00 572.53,760.00 C602.19,760.00 623.99,759.63 623.45,759.13 ZM 286.12 747.67 C289.47,743.05 292.36,735.62 295.33,724.01 L 297.50 715.50 L 297.50 585.50 L 297.50 455.50 L 294.76 445.50 C293.25,440.00 290.33,432.13 288.26,428.01 C284.64,420.81 284.22,420.38 277.15,416.63 L 269.80 412.73 L 274.33 418.88 C276.92,422.40 280.59,429.45 282.91,435.38 C290.35,454.43 290.09,448.35 289.78,590.59 L 289.50 717.50 L 286.82 726.00 C283.21,737.43 279.62,745.32 274.83,752.35 L 270.85 758.20 L 277.08 754.88 C280.84,752.87 284.42,750.02 286.12,747.67 ZM 389.39 756.75 C388.99,756.06 387.34,753.55 385.73,751.17 C381.38,744.76 375.43,731.54 372.81,722.48 L 370.50 714.50 L 370.50 585.00 L 370.50 455.50 L 373.30 446.50 C377.21,433.97 381.76,424.41 386.76,418.25 C389.11,415.36 390.68,413.01 390.26,413.03 C387.52,413.15 375.20,421.00 373.30,423.84 C369.84,429.04 364.95,442.56 362.86,452.76 C361.04,461.62 360.97,467.52 361.24,590.26 C361.56,734.98 360.83,722.20 369.74,740.00 C374.34,749.18 374.73,749.63 381.50,753.72 C388.83,758.15 390.60,758.83 389.39,756.75 ZM 630.30 756.75 C629.86,756.06 627.77,752.86 625.65,749.64 C620.87,742.37 616.71,732.42 614.64,723.30 C613.33,717.55 613.04,708.55 612.97,671.33 L 612.88 626.30 L 608.44 621.94 L 604.00 617.58 L 604.00 667.13 C604.00,722.78 604.15,724.20 611.67,740.23 C615.76,748.95 616.78,750.07 624.78,754.62 C631.46,758.41 631.33,758.37 630.30,756.75 ZM 520.12 754.34 C527.76,750.18 531.92,743.66 536.73,728.32 L 539.50 719.50 L 539.74 603.00 L 539.98 486.50 L 536.04 491.00 L 532.11 495.50 L 531.78 607.50 C531.48,710.39 531.31,719.98 529.71,725.35 C526.84,735.01 522.12,745.50 517.97,751.42 C515.82,754.49 514.32,757.00 514.65,757.00 C514.97,757.00 517.43,755.80 520.12,754.34 ZM 543.00 746.21 C550.96,742.52 561.70,731.43 566.33,722.12 C568.35,718.05 570.00,713.89 570.00,712.87 C570.00,709.21 571.53,711.09 573.21,716.83 C576.20,727.00 584.97,737.98 595.00,744.12 C599.18,746.68 601.80,747.22 598.50,744.84 C591.37,739.71 582.85,729.50 578.71,721.14 L 574.50 712.65 L 574.50 579.08 L 574.50 445.50 L 659.00 445.50 C739.20,445.50 743.78,445.60 749.00,447.39 C760.89,451.46 768.64,458.23 774.90,469.96 C776.71,473.36 778.27,476.00 778.36,475.82 C778.46,475.64 778.37,463.24 778.18,448.25 L 777.83 421.00 L 693.50 421.00 L 609.18 421.00 L 599.74 431.00 L 590.31 441.00 L 584.16 441.00 C578.49,441.00 577.69,441.29 574.00,444.62 L 570.00 448.23 L 570.00 457.67 L 570.00 467.10 L 557.25 482.10 L 544.50 497.10 L 544.00 609.80 L 543.50 722.50 L 539.72 733.47 C537.64,739.51 535.28,745.46 534.47,746.69 C533.66,747.92 533.00,749.20 533.00,749.53 C533.00,750.38 536.57,749.19 543.00,746.21 ZM 297.26 747.00 C310.90,740.97 323.14,727.03 327.54,712.50 L 328.75 708.50 L 329.98 712.97 C333.23,724.89 341.56,736.10 352.41,743.16 C359.46,747.75 363.19,748.34 356.90,743.88 C346.25,736.33 337.77,725.45 334.02,714.55 C332.04,708.79 332.00,706.44 332.00,582.45 L 332.00 456.20 L 336.50 447.22 C343.13,433.97 349.98,427.92 368.34,419.10 C376.13,415.35 384.19,411.74 386.25,411.07 C388.31,410.39 390.00,409.65 390.00,409.42 C390.00,409.19 362.89,409.00 329.75,409.01 L 269.50 409.02 L 284.45 415.51 C311.14,427.11 320.55,434.23 327.36,448.02 C330.92,455.22 331.03,455.78 330.39,462.75 C329.70,470.13 328.00,472.83 328.00,466.54 C328.00,458.06 320.68,444.56 311.60,436.26 C306.35,431.47 293.41,423.25 292.52,424.14 C292.32,424.35 293.70,428.97 295.60,434.42 C302.22,453.44 302.00,448.11 302.00,587.22 C302.00,710.36 301.95,713.41 299.94,723.34 C298.81,728.93 296.39,736.99 294.55,741.25 C292.72,745.51 291.56,749.00 291.98,749.00 C292.40,749.00 294.78,748.10 297.26,747.00 ZM 411.00 614.74 C456.53,560.30 501.98,505.66 509.52,496.31 C520.20,483.07 570.38,422.39 608.75,376.33 C625.39,356.36 639.00,339.62 639.00,339.13 C639.00,338.63 637.93,337.53 636.62,336.67 C634.28,335.13 634.13,335.26 624.91,346.31 C602.37,373.33 595.25,381.07 568.55,407.50 C538.26,437.50 535.28,441.06 514.33,472.20 C496.71,498.39 460.41,546.86 445.95,563.50 C412.43,602.06 392.05,626.55 391.93,628.38 C391.89,629.00 391.71,631.19 391.53,633.25 C391.35,635.31 391.50,636.97 391.85,636.93 C392.21,636.89 400.83,626.91 411.00,614.74 ZM 736.79 590.35 C745.17,572.95 751.90,558.56 751.72,558.39 C751.55,558.21 748.30,560.42 744.51,563.29 L 737.61 568.50 L 726.56 591.00 L 715.50 613.50 L 661.06 613.76 L 606.61 614.02 L 610.51 618.01 L 614.41 622.00 L 667.97 622.00 L 721.54 622.00 L 736.79 590.35 ZM 402.82 601.67 C418.58,577.86 424.24,570.77 441.99,552.54 C451.07,543.22 456.25,537.52 453.50,539.88 C450.75,542.24 443.10,548.50 436.50,553.78 C416.72,569.63 409.90,576.90 396.26,596.72 C391.64,603.42 391.28,604.40 391.11,610.47 C391.01,614.06 391.32,617.00 391.80,617.00 C392.28,617.00 397.24,610.10 402.82,601.67 ZM 430.53 576.52 C443.92,561.08 453.72,549.27 460.44,540.50 C464.08,535.74 464.10,535.67 460.88,539.06 C444.12,556.70 424.37,579.54 415.56,591.50 C408.75,600.73 407.83,602.67 413.17,596.52 C415.55,593.79 423.36,584.79 430.53,576.52 ZM 409.97 572.66 C415.21,567.19 424.23,558.86 430.00,554.15 C461.71,528.27 459.86,530.36 527.69,444.00 C536.54,432.73 549.12,417.39 555.64,409.91 C587.04,373.94 607.00,349.30 612.10,340.21 C613.87,337.07 616.82,332.36 618.66,329.75 C621.91,325.12 622.99,322.27 621.03,323.48 C619.19,324.62 599.76,348.44 587.99,363.97 C574.66,381.57 559.90,399.39 539.87,422.08 C528.18,435.32 493.22,478.54 460.90,519.70 C456.17,525.72 450.77,531.73 448.90,533.05 L 445.50 535.45 L 448.76 531.48 C450.55,529.29 458.14,519.40 465.64,509.50 C494.06,471.96 519.26,440.91 537.25,421.31 C555.42,401.50 565.56,389.24 587.84,360.10 C598.10,346.68 609.37,332.60 612.88,328.81 L 619.27 321.91 L 616.96 319.46 C615.69,318.11 614.17,317.02 613.58,317.05 C612.13,317.12 595.21,338.44 579.48,360.00 C561.75,384.29 560.37,385.51 574.35,364.50 C584.06,349.90 605.60,319.31 608.22,316.37 C610.11,314.26 610.10,314.22 606.84,311.67 L 603.56 309.10 L 600.77 312.30 C595.33,318.52 585.15,334.72 575.48,352.50 C562.03,377.26 553.87,389.03 535.95,409.57 C523.96,423.30 509.34,436.07 490.66,449.10 C453.66,474.92 443.17,485.80 410.93,531.80 C404.64,540.77 397.59,550.83 395.25,554.16 C391.12,560.05 391.00,560.45 391.00,568.11 C391.00,572.45 391.34,575.99 391.75,575.97 C392.16,575.96 398.12,567.29 404.99,556.72 C425.63,524.96 444.45,503.52 471.50,480.94 C477.55,475.90 484.75,469.68 487.50,467.13 C494.61,460.54 497.09,458.92 493.00,463.54 C491.08,465.71 478.68,478.52 465.46,491.99 C439.61,518.35 431.00,528.39 412.43,553.84 C389.36,585.44 391.00,582.79 391.00,588.52 C391.00,591.35 391.28,593.94 391.61,594.28 C391.95,594.62 394.07,592.13 396.33,588.75 C398.59,585.37 404.72,578.13 409.97,572.66 ZM 704.91 585.46 C708.43,584.63 713.85,582.60 716.94,580.95 C722.38,578.05 734.66,568.16 736.30,565.36 C736.97,564.22 726.30,564.00 669.30,564.02 L 601.50 564.04 L 590.00 573.60 C583.67,578.86 577.61,584.03 576.53,585.08 C574.58,586.97 575.41,587.00 636.53,586.99 C688.27,586.97 699.56,586.72 704.91,585.46 ZM 746.16 556.90 C748.82,555.19 751.00,553.61 751.00,553.40 C751.00,553.18 720.62,553.00 683.49,553.00 L 615.97 553.00 L 612.24 556.47 L 608.50 559.95 L 674.91 559.97 L 741.32 560.00 L 746.16 556.90 ZM 613.00 516.00 L 613.00 482.42 L 608.50 478.00 L 604.00 473.58 L 604.00 516.00 L 604.00 558.42 L 608.50 554.00 L 613.00 549.58 L 613.00 516.00 ZM 401.05 538.75 C429.18,493.59 445.27,475.46 476.44,453.84 C509.99,430.57 523.69,418.75 538.25,400.51 C548.82,387.26 556.34,375.72 570.49,351.00 C583.33,328.59 591.72,315.55 596.76,310.17 C598.56,308.26 599.83,306.50 599.60,306.27 C598.73,305.40 595.00,308.13 592.40,311.54 C588.15,317.11 588.26,314.59 592.54,308.37 L 596.42 302.75 L 593.46 300.36 L 590.50 297.98 L 587.50 301.70 C581.95,308.58 533.90,365.34 519.10,382.50 C479.56,428.35 418.57,499.78 402.56,519.00 C398.21,524.22 394.03,529.23 393.28,530.13 C391.89,531.78 390.80,553.25 392.15,552.41 C392.51,552.19 396.51,546.04 401.05,538.75 ZM 783.23 495.89 C781.64,490.52 781.25,490.10 773.04,484.70 C768.34,481.62 762.03,477.97 759.00,476.60 C746.61,470.96 747.17,471.00 674.81,471.00 L 608.04 471.00 L 612.35 474.96 L 616.65 478.93 L 680.07 479.21 L 743.50 479.50 L 750.14 481.86 C753.80,483.15 763.02,488.16 770.64,492.98 C778.26,497.80 784.58,501.68 784.69,501.60 C784.79,501.52 784.13,498.95 783.23,495.89 ZM 789.50 412.17 C789.21,411.88 787.63,412.93 785.99,414.51 L 783.00 417.37 L 783.01 444.94 C783.02,473.81 783.62,480.66 787.28,493.00 L 789.50 500.50 L 789.76 456.59 C789.90,432.45 789.79,412.45 789.50,412.17 ZM 782.58 412.54 L 786.50 409.08 L 694.92 409.04 L 603.35 409.00 L 601.32 411.25 C600.21,412.49 598.98,414.06 598.59,414.75 C598.03,415.75 616.25,416.00 688.27,416.00 L 778.67 416.00 L 782.58 412.54 ZM 586.10 383.85 C594.95,374.22 626.06,337.29 628.77,333.20 C629.93,331.46 630.02,330.62 629.14,329.74 C628.26,328.86 627.57,329.18 626.27,331.04 C617.91,343.04 599.40,366.10 585.22,382.19 C572.26,396.89 572.94,398.17 586.10,383.85 ZM 694.04 385.96 L 690.58 383.00 L 662.29 383.00 C646.73,383.00 634.01,382.66 634.03,382.25 C634.05,381.84 639.00,375.50 645.03,368.17 C651.06,360.84 656.00,354.53 656.00,354.16 C656.00,353.79 655.12,352.93 654.04,352.26 C652.25,351.14 650.79,352.60 637.04,369.25 C628.77,379.26 622.00,387.80 622.00,388.23 C622.00,388.65 638.99,388.98 659.75,388.96 L 697.50 388.92 L 694.04 385.96 ZM 734.67 387.21 C738.44,386.49 782.21,337.18 792.98,321.52 C797.50,314.95 798.33,311.86 797.53,304.42 L 796.83 297.92 L 789.26 291.46 C785.10,287.91 780.90,285.00 779.93,285.00 C778.85,285.00 775.11,289.17 770.20,295.85 C759.81,310.00 741.18,332.17 720.54,354.95 C706.43,370.54 704.15,373.48 705.23,374.79 C705.93,375.63 709.57,378.97 713.33,382.21 L 720.17 388.10 L 726.25 387.88 C729.59,387.76 733.38,387.46 734.67,387.21 ZM 352.92 363.59 C351.58,362.27 336.47,357.00 334.01,357.00 C330.67,357.00 328.05,360.27 330.25,361.69 C332.16,362.92 354.10,364.76 352.92,363.59 ZM 708.00 360.96 C708.00,359.90 706.75,357.63 705.22,355.92 C701.84,352.14 694.80,350.84 691.50,353.39 C689.61,354.85 689.77,354.94 694.32,354.97 C700.45,355.01 702.81,356.30 704.61,360.62 C706.10,364.18 708.00,364.37 708.00,360.96 ZM 701.63 341.73 C715.17,328.56 735.62,305.34 744.09,293.50 C749.61,285.79 757.87,271.63 759.45,267.15 L 760.87 263.11 L 740.70 246.31 C729.60,237.06 715.79,225.43 710.01,220.47 C704.23,215.50 686.57,200.31 670.77,186.72 C654.97,173.12 641.62,162.00 641.12,162.00 C638.84,162.00 626.29,172.66 612.89,185.98 C594.31,204.45 580.31,221.99 569.79,239.98 C566.55,245.53 566.00,246.07 566.00,243.70 C566.00,239.77 563.52,234.35 561.15,233.08 C558.61,231.72 554.00,231.67 554.00,233.00 C554.00,233.55 554.67,234.00 555.48,234.00 C556.30,234.00 558.44,235.31 560.23,236.92 C563.40,239.75 563.51,240.11 563.85,248.88 L 564.20 257.93 L 570.85 263.34 C574.51,266.31 588.53,278.06 602.00,289.44 C615.47,300.83 637.08,318.97 650.00,329.75 C662.92,340.52 675.45,351.11 677.82,353.26 C681.20,356.32 682.68,357.05 684.57,356.57 C685.91,356.24 693.58,349.56 701.63,341.73 ZM 302.45 348.13 C301.93,347.65 297.31,345.83 292.20,344.08 C285.11,341.66 281.55,340.97 277.20,341.20 C270.43,341.56 269.73,343.23 274.90,346.71 C277.99,348.79 279.42,349.00 290.85,349.00 C298.05,349.00 302.99,348.63 302.45,348.13 ZM 730.40 330.00 C730.86,330.00 729.57,332.14 727.53,334.75 C724.38,338.79 724.66,338.60 729.42,333.50 C742.01,320.00 759.07,297.52 758.96,294.55 C758.95,293.97 758.36,294.53 757.66,295.78 C756.97,297.04 756.13,297.79 755.80,297.47 C755.47,297.14 753.73,298.70 751.93,300.93 C747.32,306.67 746.43,305.98 750.09,299.50 C751.79,296.48 752.95,294.00 752.65,294.00 C752.04,294.00 734.66,314.43 725.00,326.50 C719.76,333.05 719.51,334.49 724.48,329.48 C725.04,328.91 726.61,327.56 727.97,326.48 C730.32,324.60 730.30,324.71 727.57,328.50 C725.98,330.70 723.72,333.62 722.54,335.00 C717.57,340.80 718.01,341.12 723.58,335.75 C726.87,332.59 729.94,330.00 730.40,330.00 ZM 360.50 331.00 C360.84,330.44 360.10,330.01 358.81,330.02 C356.95,330.03 356.79,330.22 358.00,331.00 C359.86,332.20 359.76,332.20 360.50,331.00 ZM 335.94 319.42 C330.42,315.29 327.36,314.00 323.11,314.00 C318.81,314.00 317.26,315.14 319.28,316.81 C320.63,317.94 334.26,321.76 337.44,321.91 C338.94,321.98 338.59,321.40 335.94,319.42 ZM 414.13 312.24 C412.88,309.90 396.01,293.00 394.93,293.00 C394.46,293.00 394.89,294.91 395.88,297.25 C397.25,300.48 399.67,303.00 405.96,307.75 C410.51,311.19 414.42,314.00 414.65,314.00 C414.88,314.00 414.65,313.21 414.13,312.24 ZM 442.00 294.65 C442.00,293.11 439.62,288.00 438.90,288.00 C437.69,288.00 437.76,290.68 439.04,293.07 C439.90,294.69 442.00,295.81 442.00,294.65 ZM 770.50 288.07 C772.27,287.38 772.14,287.20 769.39,286.59 C765.51,285.73 761.49,281.58 760.09,277.00 C759.07,273.65 759.04,273.72 759.37,278.76 C759.81,285.55 761.91,287.99 768.00,288.79 C768.28,288.83 769.40,288.50 770.50,288.07 ZM 378.09 259.43 C370.14,247.13 363.56,239.26 359.07,236.66 L 355.88 234.82 L 359.52 242.16 C362.49,248.15 365.12,251.38 373.83,259.73 C379.70,265.36 384.60,269.97 384.71,269.98 C384.83,269.99 381.85,265.24 378.09,259.43 ZM 477.54 260.41 C477.18,258.01 476.40,255.75 475.80,255.38 C474.75,254.73 475.01,257.62 476.72,265.50 C477.69,269.96 478.35,265.83 477.54,260.41 ZM 423.99 252.63 C421.11,242.69 418.21,238.00 414.93,238.00 C412.16,238.00 411.82,240.92 414.07,245.42 C416.36,250.01 425.92,263.41 426.49,262.84 C426.69,262.65 425.56,258.05 423.99,252.63 ZM 552.81 225.42 C575.20,196.05 589.32,179.13 607.25,160.21 C613.16,153.97 618.00,148.51 618.00,148.07 C618.00,147.63 614.54,144.28 610.32,140.63 C602.02,133.47 601.13,133.20 590.48,134.66 C586.14,135.25 584.91,136.09 577.79,143.28 C568.36,152.80 547.21,177.94 534.88,194.28 C526.54,205.35 526.00,206.35 526.07,210.78 C526.26,222.30 526.89,223.70 535.00,230.57 C539.12,234.06 542.95,236.79 543.49,236.63 C544.04,236.47 548.23,231.43 552.81,225.42 ZM 743.82 225.53 C746.73,221.66 746.99,220.84 745.94,218.81 C744.20,215.44 740.02,210.00 739.16,210.00 C738.21,210.00 731.00,219.64 731.00,220.92 C731.00,223.38 733.21,222.74 736.28,219.39 C741.00,214.24 742.63,215.36 738.96,221.25 C735.55,226.71 735.48,227.00 737.50,227.00 C738.33,227.00 739.00,227.68 739.00,228.50 C739.00,230.99 740.33,230.17 743.82,225.53 ZM 585.48 208.50 C590.34,203.00 597.96,194.68 602.43,190.00 C606.89,185.32 611.89,179.95 613.52,178.05 L 616.50 174.59 L 613.00 177.12 C605.98,182.18 605.27,182.04 610.10,176.53 C611.81,174.59 612.78,173.00 612.26,173.00 C611.74,173.00 610.46,173.94 609.42,175.09 C608.37,176.24 606.67,177.64 605.62,178.20 C604.27,178.93 604.69,177.86 607.09,174.53 C608.94,171.95 610.80,169.62 611.23,169.36 C611.65,169.10 611.99,168.35 611.97,167.69 C611.89,164.57 573.00,212.18 573.00,215.40 C573.00,215.72 576.19,212.73 580.09,208.74 C587.73,200.92 587.97,201.22 581.52,210.50 C577.55,216.20 575.11,220.09 576.17,219.00 C576.44,218.73 580.63,214.00 585.48,208.50 ZM 732.89 213.21 C737.37,208.72 737.59,208.27 736.25,206.25 C735.46,205.05 732.43,202.04 729.51,199.56 L 724.22 195.03 L 719.46 200.59 L 714.71 206.16 L 716.89 208.33 L 719.06 210.50 L 723.99 205.00 C729.81,198.50 730.47,199.80 725.38,207.75 L 721.77 213.40 L 724.63 215.70 C726.21,216.96 727.63,217.99 727.80,218.00 C727.96,218.00 730.25,215.84 732.89,213.21 ZM 719.80 190.68 C714.78,186.38 700.30,176.00 699.33,176.00 C698.46,176.00 692.00,186.18 692.00,187.56 C692.00,187.97 692.93,187.46 694.08,186.43 C696.13,184.57 696.14,184.58 695.47,187.28 C694.73,190.19 696.59,191.24 697.64,188.50 C697.95,187.68 698.63,187.00 699.13,187.00 C699.63,187.00 699.34,188.08 698.47,189.41 C695.55,193.86 698.90,193.51 703.71,188.87 C708.33,184.42 708.34,185.75 703.75,192.30 C701.87,194.99 701.86,195.19 703.56,197.06 C705.21,198.89 705.44,198.91 707.16,197.35 C709.13,195.58 709.77,196.83 707.87,198.73 C707.02,199.58 707.46,200.49 709.57,202.31 L 712.41 204.75 L 717.75 199.12 L 723.10 193.50 L 719.80 190.68 ZM 693.89 179.90 C697.36,175.88 697.99,174.61 696.89,173.91 C694.66,172.50 692.46,172.85 689.63,175.08 C685.46,178.36 684.52,180.81 686.58,183.08 C687.53,184.14 688.58,185.00 688.90,185.00 C689.23,185.00 691.48,182.70 693.89,179.90 ZM 630.42 167.12 C630.72,166.64 629.28,165.97 627.23,165.64 C621.38,164.68 617.01,161.53 616.97,158.26 C616.94,156.02 616.76,155.81 615.98,157.14 C614.57,159.56 616.73,164.79 619.86,166.48 C622.79,168.08 629.58,168.49 630.42,167.12 ZM 638.00 516.00 L 638.00 504.00 L 687.25 504.03 C731.68,504.06 736.99,504.24 741.50,505.83 C745.72,507.31 773.50,524.21 776.45,527.08 C777.03,527.64 750.41,528.00 707.70,528.00 L 638.00 528.00 L 638.00 516.00 ZM 397.03 474.91 C397.00,458.09 398.94,448.32 404.14,439.10 C407.49,433.16 426.51,407.16 436.22,395.25 L 442.13 388.00 L 462.56 388.00 C473.80,388.00 483.00,388.23 483.00,388.52 C483.00,388.81 476.36,396.80 468.25,406.28 C460.14,415.77 442.02,437.00 428.00,453.47 C413.98,469.94 401.28,484.79 399.78,486.46 L 397.06 489.50 L 397.03 474.91 ZM 440.99 416.16 C439.49,415.66 436.00,418.94 436.00,420.84 C436.00,421.91 436.91,421.50 439.05,419.45 C440.73,417.85 441.60,416.37 440.99,416.16 ZM 449.74 408.05 C450.42,406.96 450.56,405.85 450.06,405.54 C449.07,404.92 446.00,407.60 446.00,409.07 C446.00,410.73 448.49,410.05 449.74,408.05 ZM 512.57 481.25 C526.41,457.42 535.23,445.72 552.94,427.65 C567.90,412.38 577.28,404.13 570.00,412.63 C568.08,414.88 561.96,421.85 556.41,428.11 C541.55,444.88 527.96,461.70 518.85,474.60 C514.41,480.87 510.57,486.00 510.30,486.00 C510.03,486.00 511.05,483.86 512.57,481.25 ZM 434.00 536.76 C434.00,534.57 444.19,522.03 452.49,514.00 C457.74,508.93 459.05,508.05 458.48,510.00 C457.50,513.36 453.40,518.87 446.73,525.78 C436.69,536.21 434.00,538.53 434.00,536.76 ZM 442.70 494.46 C448.03,486.89 479.68,458.77 495.50,447.55 C499.00,445.07 498.82,445.38 493.99,450.11 C490.96,453.07 482.63,460.44 475.49,466.49 C468.34,472.53 457.56,481.98 451.53,487.49 C445.49,492.99 441.52,496.13 442.70,494.46 ZM 474.53 444.90 C477.81,441.54 488.65,431.44 498.61,422.45 C508.57,413.46 518.84,403.75 521.43,400.87 C528.39,393.12 538.49,379.24 548.24,364.00 C556.43,351.19 571.00,330.91 571.00,332.31 C571.00,333.23 557.26,355.96 546.70,372.50 C528.99,400.25 517.15,413.73 495.50,430.85 C488.90,436.07 480.52,442.74 476.89,445.67 C473.25,448.60 469.89,451.00 469.42,451.00 C468.95,451.00 471.25,448.25 474.53,444.90 ZM 714.61 377.68 L 708.72 372.41 L 718.19 361.46 C732.14,345.32 737.73,339.43 738.43,340.11 C738.77,340.44 736.95,343.59 734.39,347.11 C731.83,350.62 729.24,354.17 728.65,355.00 C727.51,356.59 731.62,353.17 738.87,346.52 C742.41,343.26 743.00,342.98 741.99,345.00 C741.30,346.38 739.31,349.52 737.57,352.00 C731.47,360.66 731.90,360.54 742.93,350.52 C747.05,346.79 747.23,346.71 745.55,349.50 C744.55,351.15 742.75,353.85 741.55,355.50 C736.47,362.45 737.60,362.12 746.23,354.10 C748.28,352.19 750.17,350.84 750.42,351.09 C750.67,351.34 748.20,355.29 744.92,359.86 C741.64,364.44 739.31,368.03 739.73,367.84 C744.13,365.90 788.25,313.91 786.76,312.43 C786.51,312.18 784.21,313.82 781.65,316.07 C777.24,319.96 775.44,320.50 778.34,317.08 C779.07,316.21 780.71,313.76 781.99,311.63 C784.25,307.86 784.26,307.79 782.21,308.89 C781.06,309.51 779.85,310.44 779.53,310.96 C779.20,311.48 777.52,312.92 775.79,314.15 C772.47,316.51 772.60,316.08 777.17,309.32 C778.73,307.02 780.00,304.84 780.00,304.48 C780.00,304.11 777.75,305.70 775.00,308.00 C769.26,312.80 768.79,312.34 772.96,306.04 C774.59,303.59 775.70,301.37 775.44,301.11 C775.17,300.84 772.94,302.60 770.48,305.02 C763.18,312.18 765.04,307.48 773.75,296.75 C776.76,293.04 779.55,290.00 779.94,290.00 C780.34,290.00 783.44,292.51 786.83,295.58 L 793.00 301.17 L 793.00 307.01 C793.00,312.71 792.82,313.10 785.68,322.68 C776.36,335.20 764.16,349.61 747.11,368.25 L 733.62 383.00 L 727.06 382.98 C720.57,382.95 720.44,382.90 714.61,377.68 ZM 654.94 328.25 C639.24,315.19 623.01,301.58 618.87,298.00 C614.74,294.42 601.59,283.22 589.65,273.11 C571.10,257.39 568.05,254.41 568.61,252.61 C571.31,243.98 584.19,222.69 591.98,214.00 C594.88,210.76 594.76,211.17 590.39,219.41 C587.80,224.30 584.44,231.47 582.94,235.33 L 580.20 242.36 L 587.09 250.17 C590.87,254.46 596.54,261.47 599.67,265.74 C607.84,276.86 619.20,290.13 624.70,294.97 C632.76,302.07 640.78,307.31 661.00,318.71 C671.72,324.75 683.08,331.35 686.24,333.38 L 691.98 337.05 L 696.24 334.90 C698.58,333.71 704.02,330.33 708.31,327.38 C714.01,323.48 715.57,322.73 714.08,324.63 C711.92,327.37 684.87,351.97 683.99,351.99 C683.71,351.99 670.64,341.31 654.94,328.25 ZM 729.43 304.50 C732.54,300.42 743.99,277.21 743.98,275.00 C743.98,274.17 740.57,269.45 736.41,264.50 C732.25,259.55 725.42,251.00 721.24,245.50 C706.57,226.21 694.75,216.42 663.23,197.50 C652.38,190.98 641.52,184.31 639.10,182.68 C635.00,179.90 634.47,179.79 631.10,180.96 C629.12,181.65 624.46,183.95 620.75,186.06 C617.04,188.17 614.00,189.68 614.00,189.42 C614.00,188.75 619.67,183.83 630.88,174.79 C639.01,168.24 640.67,167.28 641.97,168.38 C642.81,169.09 653.85,178.39 666.50,189.04 C679.15,199.69 697.38,215.20 707.00,223.49 C716.62,231.79 731.36,244.34 739.75,251.38 C748.14,258.42 755.00,264.83 755.00,265.62 C755.00,270.64 730.93,307.89 727.63,307.98 C727.15,307.99 727.96,306.42 729.43,304.50 ZM 753.51 300.62 C754.46,299.18 755.42,298.00 755.65,298.00 C756.37,298.00 754.05,301.85 752.89,302.57 C752.29,302.94 752.57,302.07 753.51,300.62 ZM 536.68 225.71 C530.06,219.53 530.00,219.42 530.00,214.16 C530.00,209.37 530.46,208.24 534.71,202.67 C548.01,185.25 575.49,152.80 583.68,144.84 C588.75,139.91 590.15,139.10 594.59,138.52 C600.06,137.81 601.09,138.35 609.76,146.39 L 613.03 149.42 L 606.79 155.71 C599.22,163.35 596.62,164.03 600.54,157.35 L 603.26 152.69 L 599.13 156.01 C594.01,160.13 592.78,159.29 596.58,154.28 L 599.43 150.50 L 595.78 153.25 C590.19,157.46 589.12,156.39 593.59,151.08 C596.75,147.32 595.83,147.13 591.28,150.60 C589.40,152.03 587.64,152.97 587.36,152.69 C587.08,152.41 588.24,150.27 589.93,147.93 C593.83,142.55 593.05,141.60 588.39,146.07 C579.47,154.62 545.42,195.75 546.43,196.76 C546.64,196.97 549.19,194.87 552.10,192.10 C555.00,189.32 557.53,187.19 557.70,187.37 C557.88,187.55 555.80,191.02 553.08,195.08 C550.36,199.14 548.32,202.65 548.54,202.88 C548.77,203.10 551.92,200.18 555.54,196.39 C562.70,188.91 562.77,189.14 556.30,199.18 C553.94,202.85 552.00,206.19 552.00,206.61 C552.00,207.02 555.18,204.02 559.08,199.93 C565.14,193.57 565.83,193.08 563.90,196.50 C562.65,198.70 560.44,202.30 558.99,204.50 C554.25,211.66 554.62,211.60 562.49,204.00 L 570.25 196.50 L 564.21 205.58 C558.26,214.53 547.41,228.58 544.73,230.81 C543.65,231.70 541.96,230.63 536.68,225.71 Z" fill="rgba(0,0,0,1)"/>
</g>
</svg>